<svg xmlns="http://www.w3.org/2000/svg" xmlns:xlink="http://www.w3.org/1999/xlink" width="500" zoomAndPan="magnify" viewBox="0 0 375 374.999991" height="500" preserveAspectRatio="xMidYMid meet" version="1.0"><defs><g/><clipPath id="b5760f8d7f"><path d="M 49 125.914062 L 318 125.914062 L 318 261.664062 L 49 261.664062 Z M 49 125.914062 " clip-rule="nonzero"/></clipPath><clipPath id="180fd15804"><path d="M 282.355469 70.214844 L 328.964844 70.214844 L 328.964844 116.824219 L 282.355469 116.824219 Z M 282.355469 70.214844 " clip-rule="nonzero"/></clipPath><clipPath id="68a4e4c31e"><path d="M 305.660156 70.214844 C 292.789062 70.214844 282.355469 80.648438 282.355469 93.519531 C 282.355469 106.390625 292.789062 116.824219 305.660156 116.824219 C 318.53125 116.824219 328.964844 106.390625 328.964844 93.519531 C 328.964844 80.648438 318.53125 70.214844 305.660156 70.214844 Z M 305.660156 70.214844 " clip-rule="nonzero"/></clipPath></defs><g clip-path="url(#b5760f8d7f)"><path fill="#ffc901" d="M 302.421875 125.945312 C 294.707031 125.945312 288.148438 131.675781 287.171875 139.347656 C 280.609375 190.910156 236.6875 230.769531 183.480469 230.769531 C 130.273438 230.769531 86.355469 190.917969 79.792969 139.347656 C 78.816406 131.675781 72.257812 125.945312 64.542969 125.945312 C 55.273438 125.945312 48.097656 134.105469 49.269531 143.320312 C 57.777344 210.058594 114.621094 261.632812 183.480469 261.632812 C 252.335938 261.632812 309.1875 210.050781 317.691406 143.320312 C 318.867188 134.105469 311.691406 125.945312 302.421875 125.945312 Z M 302.421875 125.945312 " fill-opacity="1" fill-rule="nonzero"/></g><g fill="#000000" fill-opacity="1"><g transform="translate(57.161056, 177.945485)"><g><path d="M 56.59375 0 L 41.484375 0 L 35.265625 -30.0625 L 32.75 -30.0625 L 26.53125 0 L 11.421875 0 L 0.671875 -46.765625 L 14.1875 -46.765625 L 19.734375 -18.71875 L 22.25 -18.71875 L 27.796875 -46.765625 L 40.984375 -46.765625 L 46.9375 -18.71875 L 49.296875 -18.71875 L 54.578125 -46.765625 L 67.34375 -46.765625 Z M 56.59375 0 "/></g></g></g><g fill="#000000" fill-opacity="1"><g transform="translate(108.331332, 250.215933)"><g><path d="M 0.75 -28.296875 C 0.75 -20.179688 -1.25 -13.9375 -5.25 -9.5625 C -9.25 -5.195312 -15.304688 -3.015625 -23.421875 -3.015625 C -31.484375 -3.015625 -37.53125 -5.195312 -41.5625 -9.5625 C -45.59375 -13.9375 -47.609375 -20.179688 -47.609375 -28.296875 C -47.609375 -36.410156 -45.59375 -42.648438 -41.5625 -47.015625 C -37.53125 -51.390625 -31.484375 -53.578125 -23.421875 -53.578125 C -15.304688 -53.578125 -9.25 -51.390625 -5.25 -47.015625 C -1.25 -42.648438 0.75 -36.410156 0.75 -28.296875 Z M -25.6875 -40.046875 C -27.539062 -40.046875 -29.234375 -39.804688 -30.765625 -39.328125 C -32.304688 -38.859375 -33.632812 -38.132812 -34.75 -37.15625 C -35.875 -36.175781 -36.757812 -34.941406 -37.40625 -33.453125 C -38.050781 -31.972656 -38.375 -30.253906 -38.375 -28.296875 C -38.375 -26.335938 -38.050781 -24.613281 -37.40625 -23.125 C -36.757812 -21.644531 -35.875 -20.425781 -34.75 -19.46875 C -33.632812 -18.519531 -32.304688 -17.804688 -30.765625 -17.328125 C -29.234375 -16.859375 -27.539062 -16.625 -25.6875 -16.625 L -21.15625 -16.625 C -19.3125 -16.625 -17.617188 -16.859375 -16.078125 -17.328125 C -14.535156 -17.804688 -13.191406 -18.519531 -12.046875 -19.46875 C -10.898438 -20.425781 -10.003906 -21.644531 -9.359375 -23.125 C -8.710938 -24.613281 -8.390625 -26.335938 -8.390625 -28.296875 C -8.390625 -30.253906 -8.710938 -31.972656 -9.359375 -33.453125 C -10.003906 -34.941406 -10.898438 -36.175781 -12.046875 -37.15625 C -13.191406 -38.132812 -14.535156 -38.859375 -16.078125 -39.328125 C -17.617188 -39.804688 -19.3125 -40.046875 -21.15625 -40.046875 Z M -25.6875 -40.046875 "/></g></g></g><g fill="#000000" fill-opacity="1"><g transform="translate(221.38745, 171.812586)"><g><path d="M 29.3125 0 L 21.25 -13.015625 C 20.738281 -12.566406 20.257812 -12.101562 19.8125 -11.625 C 19.363281 -11.15625 18.914062 -10.695312 18.46875 -10.25 C 17.96875 -9.738281 17.492188 -9.273438 17.046875 -8.859375 C 16.597656 -8.441406 16.148438 -8.007812 15.703125 -7.5625 L 15.703125 0 L 3.4375 0 L 3.4375 -49.203125 L 15.703125 -49.203125 L 15.703125 -20.15625 C 16.710938 -21.269531 17.75 -22.457031 18.8125 -23.71875 C 19.875 -24.976562 20.878906 -26.171875 21.828125 -27.296875 C 22.953125 -28.578125 24.054688 -29.890625 25.140625 -31.234375 C 26.234375 -32.578125 27.34375 -33.894531 28.46875 -35.1875 L 42.828125 -35.1875 L 30.0625 -21.328125 C 31.175781 -19.585938 32.265625 -17.847656 33.328125 -16.109375 C 34.398438 -14.378906 35.519531 -12.648438 36.6875 -10.921875 C 37.8125 -9.128906 38.988281 -7.296875 40.21875 -5.421875 C 41.445312 -3.546875 42.625 -1.738281 43.75 0 Z M 29.3125 0 "/></g></g></g><g fill="#000000" fill-opacity="1"><g transform="translate(265.888395, 171.812586)"><g><path d="M 22.5 0.75 C 16.0625 0.75 11.007812 -0.785156 7.34375 -3.859375 C 3.675781 -6.941406 1.84375 -11.644531 1.84375 -17.96875 C 1.84375 -24.289062 3.675781 -28.988281 7.34375 -32.0625 C 11.007812 -35.144531 16.0625 -36.6875 22.5 -36.6875 C 28.9375 -36.6875 34.003906 -35.144531 37.703125 -32.0625 C 41.398438 -28.988281 43.25 -24.289062 43.25 -17.96875 C 43.25 -11.644531 41.398438 -6.941406 37.703125 -3.859375 C 34.003906 -0.785156 28.9375 0.75 22.5 0.75 Z M 30.140625 -20.0625 C 30.140625 -22.75 29.535156 -24.929688 28.328125 -26.609375 C 27.128906 -28.296875 25.1875 -29.140625 22.5 -29.140625 C 19.757812 -29.140625 17.800781 -28.285156 16.625 -26.578125 C 15.445312 -24.867188 14.859375 -22.695312 14.859375 -20.0625 L 14.859375 -15.78125 C 14.859375 -13.09375 15.445312 -10.921875 16.625 -9.265625 C 17.800781 -7.617188 19.757812 -6.796875 22.5 -6.796875 C 25.1875 -6.796875 27.128906 -7.617188 28.328125 -9.265625 C 29.535156 -10.921875 30.140625 -13.09375 30.140625 -15.78125 Z M 30.140625 -20.0625 "/></g></g></g><g fill="#000000" fill-opacity="1"><g transform="translate(221.38745, 261.478927)"><g><path d="M 26.28125 -26.109375 C 24.539062 -26.109375 23.082031 -25.859375 21.90625 -25.359375 C 20.738281 -24.859375 19.789062 -24.160156 19.0625 -23.265625 C 18.332031 -22.367188 17.800781 -21.273438 17.46875 -19.984375 C 17.132812 -18.691406 16.96875 -17.289062 16.96875 -15.78125 L 16.96875 0 L 3.4375 0 L 3.4375 -35.859375 L 14.4375 -35.859375 L 15.703125 -28.71875 C 16.484375 -30.34375 17.304688 -31.671875 18.171875 -32.703125 C 19.046875 -33.742188 19.929688 -34.570312 20.828125 -35.1875 C 21.722656 -35.800781 22.660156 -36.21875 23.640625 -36.4375 C 24.617188 -36.664062 25.640625 -36.78125 26.703125 -36.78125 C 27.992188 -36.78125 29.195312 -36.582031 30.3125 -36.1875 L 30.3125 -26.109375 Z M 26.28125 -26.109375 "/></g></g></g><g fill="#000000" fill-opacity="1"><g transform="translate(251.614507, 261.478927)"><g><path d="M 2.515625 -26.109375 C 2.578125 -27.566406 2.984375 -28.9375 3.734375 -30.21875 C 4.492188 -31.507812 5.65625 -32.628906 7.21875 -33.578125 C 8.789062 -34.535156 10.765625 -35.289062 13.140625 -35.84375 C 15.515625 -36.40625 18.328125 -36.6875 21.578125 -36.6875 C 24.265625 -36.6875 26.753906 -36.476562 29.046875 -36.0625 C 31.347656 -35.644531 33.351562 -34.988281 35.0625 -34.09375 C 36.769531 -33.195312 38.097656 -32.035156 39.046875 -30.609375 C 39.992188 -29.179688 40.46875 -27.457031 40.46875 -25.4375 L 40.46875 -10.578125 C 40.46875 -9.628906 40.675781 -8.757812 41.09375 -7.96875 C 41.519531 -7.1875 42.265625 -6.796875 43.328125 -6.796875 L 45.265625 -6.796875 L 45.265625 -0.328125 C 45.085938 -0.222656 44.898438 -0.140625 44.703125 -0.078125 C 44.515625 -0.0234375 44.195312 0.0234375 43.75 0.078125 C 43.238281 0.242188 42.535156 0.394531 41.640625 0.53125 C 40.753906 0.675781 39.691406 0.75 38.453125 0.75 C 35.710938 0.75 33.53125 0.347656 31.90625 -0.453125 C 30.28125 -1.265625 29.019531 -2.484375 28.125 -4.109375 C 26.113281 -2.546875 24.03125 -1.34375 21.875 -0.5 C 19.71875 0.332031 17.128906 0.75 14.109375 0.75 C 10.078125 0.75 6.953125 0.0507812 4.734375 -1.34375 C 2.523438 -2.738281 1.421875 -5.203125 1.421875 -8.734375 C 1.421875 -11.191406 1.9375 -13.21875 2.96875 -14.8125 C 4.007812 -16.414062 5.59375 -17.675781 7.71875 -18.59375 C 9.851562 -19.519531 12.539062 -20.164062 15.78125 -20.53125 C 19.03125 -20.894531 22.894531 -21.078125 27.375 -21.078125 L 27.375 -24.09375 C 27.375 -26.050781 26.753906 -27.492188 25.515625 -28.421875 C 24.285156 -29.347656 22.914062 -29.8125 21.40625 -29.8125 C 20.125 -29.8125 18.878906 -29.515625 17.671875 -28.921875 C 16.472656 -28.335938 15.703125 -27.398438 15.359375 -26.109375 Z M 27.375 -16.546875 C 18.75 -16.546875 14.4375 -14.554688 14.4375 -10.578125 C 14.4375 -9.566406 14.617188 -8.769531 14.984375 -8.1875 C 15.347656 -7.601562 15.8125 -7.140625 16.375 -6.796875 C 16.9375 -6.460938 17.535156 -6.238281 18.171875 -6.125 C 18.816406 -6.019531 19.421875 -5.96875 19.984375 -5.96875 C 20.828125 -5.96875 21.695312 -6.101562 22.59375 -6.375 C 23.488281 -6.65625 24.285156 -7.0625 24.984375 -7.59375 C 25.679688 -8.125 26.253906 -8.78125 26.703125 -9.5625 C 27.148438 -10.351562 27.375 -11.253906 27.375 -12.265625 Z M 27.375 -16.546875 "/></g></g></g><g fill="#000000" fill-opacity="1"><g transform="translate(119.937659, 255.028468)"><g><path d="M 94.984375 -96.1875 C 96.597656 -94.976562 97.554688 -93.3125 97.859375 -91.1875 C 98.160156 -89.070312 97.707031 -87.210938 96.5 -85.609375 C 95.28125 -83.992188 93.660156 -83.035156 91.640625 -82.734375 C 89.628906 -82.429688 87.816406 -82.882812 86.203125 -84.09375 C 86.003906 -84.09375 84.539062 -84.644531 81.8125 -85.75 C 79.09375 -86.863281 75.3125 -87.21875 70.46875 -86.8125 C 65.632812 -86.40625 60.09375 -83.984375 53.84375 -79.546875 C 50.613281 -77.328125 47.4375 -73.492188 44.3125 -68.046875 C 41.1875 -62.609375 38.257812 -56.359375 35.53125 -49.296875 C 32.8125 -42.242188 30.34375 -35.132812 28.125 -27.96875 C 25.90625 -20.8125 24.191406 -14.410156 22.984375 -8.765625 C 22.179688 -4.941406 19.765625 -3.03125 15.734375 -3.03125 C 15.128906 -3.03125 14.625 -3.128906 14.21875 -3.328125 C 12.40625 -3.523438 10.890625 -4.476562 9.671875 -6.1875 C 8.460938 -7.90625 8.0625 -9.773438 8.46875 -11.796875 L 22.078125 -99.515625 C 22.285156 -101.535156 23.242188 -103.148438 24.953125 -104.359375 C 26.671875 -105.566406 28.535156 -106.070312 30.546875 -105.875 C 32.566406 -105.46875 34.179688 -104.457031 35.390625 -102.84375 C 36.597656 -101.226562 37.101562 -99.414062 36.90625 -97.40625 L 34.1875 -79.859375 C 37.8125 -85.296875 41.539062 -89.328125 45.375 -91.953125 C 52.226562 -96.796875 58.679688 -99.820312 64.734375 -101.03125 C 70.785156 -102.238281 76.023438 -102.4375 80.453125 -101.625 C 84.890625 -100.820312 88.367188 -99.710938 90.890625 -98.296875 C 93.410156 -96.890625 94.773438 -96.1875 94.984375 -96.1875 Z M 94.984375 -96.1875 "/></g></g></g><g clip-path="url(#180fd15804)"><g clip-path="url(#68a4e4c31e)"><path fill="#ffc901" d="M 282.355469 70.214844 L 328.964844 70.214844 L 328.964844 116.824219 L 282.355469 116.824219 Z M 282.355469 70.214844 " fill-opacity="1" fill-rule="nonzero"/></g></g></svg>